g default
v 0.167639002 0 -0.506624997
v -0.418193996 1 -0.168874994
v -0.418193996 0 -0.168874994
v 0.167639002 1 -0.506624997
v 0.460556 0 -0.337749988
v -0.418193996 1 0.168874994
v -0.418193996 0 0.168874994
v 0.460556 1 -0.337749988
v 0.460556 0 0.337749988
v 0.460556 1 0.337749988
v 0.167639002 0 0.506624997
v 0.167639002 1 0.506624997
vt 1 0.75
vt 0.840451002 0.896353006
vt 0.875 1
vt 0.896353006 0.784548998
vt 0.9375 0.625
vt 0.784548998 0.896353006
vt 0.75 1
vt 0.868402004 0.728646994
vt 0.6875 0.625
vt 0.756597996 0.728646994
vt 0.625 0.75
vt 0.728646994 0.784548998
vn 0.202942342 0 -0.979190648
vn -0.67312175 0.707121491 -0.216532439
vn -0.951962173 0 -0.306215495
vn 0.143497705 0.707105517 -0.692394495
vn 0.779240727 0 -0.626724899
vn -0.67312175 0.707121491 0.216532439
vn -0.951962173 0 0.306215495
vn 0.550984085 0.707137883 -0.443139374
vn 0.779240727 0 0.626724899
vn 0.550984085 0.707137883 0.443139374
vn 0.202942342 0 0.979190648
vn 0.143497705 0.707105517 0.692394495
g default_0
f 3/3/3 2/2/2 1/1/1
f 2/2/2 4/4/4 1/1/1
f 1/1/1 4/4/4 5/5/5
f 6/6/6 2/2/2 3/3/3
f 4/4/4 2/2/2 6/6/6
f 7/7/7 6/6/6 3/3/3
f 4/4/4 8/8/8 5/5/5
f 8/8/8 4/4/4 6/6/6
f 5/5/5 8/8/8 9/9/9
f 8/8/8 10/10/10 9/9/9
f 10/10/10 8/8/8 6/6/6
f 9/9/9 10/10/10 11/11/11
f 11/11/11 12/12/12 7/7/7
f 12/12/12 6/6/6 7/7/7
f 12/12/12 10/10/10 6/6/6
f 10/10/10 12/12/12 11/11/11
