g default
v -0.203293994 0 -0.203293994
v 0.203293994 0 -0.203293994
v 0.203293994 1 -0.203293994
v -0.203293994 1 -0.203293994
v -0.203293994 0 0.203293994
v 0.203293994 1 0.203293994
v 0.203293994 0 0.203293994
v -0.203293994 1 0.203293994
vt 0.625 1
vt 0.625 0.75
vt 0.53125 0.84375
vt 0.53125 0.90625
vt 0.375 1
vt 0.46875 0.84375
vt 0.375 0.75
vt 0.46875 0.90625
vn -0.707106769 0 -0.707106769
vn 0.707106769 0 -0.707106769
vn 0.499999911 0.707106888 -0.499999911
vn -0.499999911 0.707106888 -0.499999911
vn -0.707106769 0 0.707106769
vn 0.499999911 0.707106888 0.499999911
vn 0.707106769 0 0.707106769
vn -0.499999911 0.707106888 0.499999911
g default_0
f 3/3/3 2/2/2 1/1/1
f 4/4/4 3/3/3 1/1/1
f 4/4/4 1/1/1 5/5/5
f 3/3/3 6/6/6 2/2/2
f 3/3/3 4/4/4 6/6/6
f 6/6/6 7/7/7 2/2/2
f 8/8/8 5/5/5 7/7/7
f 8/8/8 4/4/4 5/5/5
f 6/6/6 8/8/8 7/7/7
f 4/4/4 8/8/8 6/6/6
