g default
v 0.25 0 0
v 0.176777005 1 0.176777005
v 0.25 1 0
v 0.176777005 0 0.176777005
v -0 1 0.25
v -0 0 0.25
v -0.176777005 1 0.176777005
v -0.176777005 0 0.176777005
v -0.25 1 0
v -0.25 0 0
v -0.176777005 1 -0.176777005
v -0.176777005 0 -0.176777005
v -0 1 -0.25
v -0 0 -0.25
v 0.176777005 1 -0.176777005
v 0.176777005 0 -0.176777005
v 0.25 1 0
v 0.25 0 0
v 0.25 1 0
v 0.176777005 1 0.176777005
v -0 1 0.25
v -0.25 1 0
v -0.176777005 1 0.176777005
v -0 1 -0.25
v 0.176777005 1 -0.176777005
v -0.176777005 1 -0.176777005
vt 1 0
vt 0.875 0.625
vt 1 0.625
vt 0.875 0
vt 0.75 0.625
vt 0.75 0
vt 0.625 0.625
vt 0.625 0
vt 0.5 0.625
vt 0.5 0
vt 0.375 0.625
vt 0.375 0
vt 0.25 0.625
vt 0.25 0
vt 0.125 0.625
vt 0.125 0
vt 0 0.625
vt 0 0
vt 0.1875 0.625
vt 0.0549170002 0.679916978
vt 0 0.8125
vt 0.1875 1
vt 0.0549170002 0.945083022
vt 0.375 0.8125
vt 0.320082992 0.679916978
vt 0.320082992 0.945083022
vn 1 0 0
vn 0.707106769 0 0.707106769
vn 1 0 0
vn 0.707106769 0 0.707106769
vn -0 0 1
vn -0 0 1
vn -0.707106769 0 0.707106769
vn -0.707106769 0 0.707106769
vn -1 0 0
vn -1 0 0
vn -0.707106769 0 -0.707106769
vn -0.707106769 0 -0.707106769
vn -0 0 -1
vn -0 0 -1
vn 0.707106769 0 -0.707106769
vn 0.707106769 0 -0.707106769
vn 1 0 0
vn 1 0 0
vn -0 1 0
vn -0 1 0
vn -0 1 0
vn -0 1 0
vn -0 1 0
vn -0 1 0
vn -0 1 0
vn -0 1 0
g default_0
f 3/3/3 2/2/2 1/1/1
f 2/2/2 4/4/4 1/1/1
f 2/2/2 5/5/5 4/4/4
f 5/5/5 6/6/6 4/4/4
f 5/5/5 7/7/7 6/6/6
f 7/7/7 8/8/8 6/6/6
f 7/7/7 9/9/9 8/8/8
f 9/9/9 10/10/10 8/8/8
f 9/9/9 11/11/11 10/10/10
f 11/11/11 12/12/12 10/10/10
f 11/11/11 13/13/13 12/12/12
f 13/13/13 14/14/14 12/12/12
f 13/13/13 15/15/15 14/14/14
f 15/15/15 16/16/16 14/14/14
f 15/15/15 17/17/17 16/16/16
f 17/17/17 18/18/18 16/16/16
f 21/21/21 20/20/20 19/19/19
f 22/22/22 21/21/21 19/19/19
f 22/22/22 23/23/23 21/21/21
f 24/24/24 22/22/22 19/19/19
f 19/19/19 25/25/25 24/24/24
f 24/24/24 26/26/26 22/22/22
