g default
v 0.25 0 0
v 0.230969995 1 0.0956709981
v 0.25 1 0
v 0.230969995 0 0.0956709981
v 0.176777005 1 0.176777005
v 0.176777005 0 0.176777005
v 0.0956709981 1 0.230969995
v 0.0956709981 0 0.230969995
v -0 1 0.25
v -0 0 0.25
v -0.0956709981 1 0.230969995
v -0.0956709981 0 0.230969995
v -0.176777005 1 0.176777005
v -0.176777005 0 0.176777005
v -0.230969995 1 0.0956709981
v -0.230969995 0 0.0956709981
v -0.25 1 0
v -0.25 0 0
v -0.230969995 1 -0.0956709981
v -0.230969995 0 -0.0956709981
v -0.176777005 1 -0.176777005
v -0.176777005 0 -0.176777005
v -0.0956709981 1 -0.230969995
v -0.0956709981 0 -0.230969995
v -0 1 -0.25
v -0 0 -0.25
v 0.0956709981 1 -0.230969995
v 0.0956709981 0 -0.230969995
v 0.176777005 1 -0.176777005
v 0.176777005 0 -0.176777005
v 0.230969995 1 -0.0956709981
v 0.230969995 0 -0.0956709981
v 0.25 1 0
v 0.25 0 0
v 0.230969995 1 0.0956709981
v 0.176777005 1 0.176777005
v 0.0956709981 1 0.230969995
v -0 1 0.25
v 0.25 1 0
v -0.25 1 0
v -0.0956709981 1 0.230969995
v -0.230969995 1 0.0956709981
v -0.176777005 1 0.176777005
v -0 1 -0.25
v -0.230969995 1 -0.0956709981
v -0.0956709981 1 -0.230969995
v -0.176777005 1 -0.176777005
v 0.0956709981 1 -0.230969995
v 0.230969995 1 -0.0956709981
v 0.176777005 1 -0.176777005
v 0.230969995 0 0.0956709981
v 0.0956709981 0 0.230969995
v 0.176777005 0 0.176777005
v -0 0 0.25
v 0.25 0 0
v -0.25 0 0
v -0.0956709981 0 0.230969995
v -0.230969995 0 0.0956709981
v -0.176777005 0 0.176777005
v -0 0 -0.25
v -0.230969995 0 -0.0956709981
v -0.0956709981 0 -0.230969995
v -0.176777005 0 -0.176777005
v 0.0956709981 0 -0.230969995
v 0.230969995 0 -0.0956709981
v 0.176777005 0 -0.176777005
vt 1 0
vt 0.9375 0.625
vt 1 0.625
vt 0.9375 0
vt 0.875 0.625
vt 0.875 0
vt 0.8125 0.625
vt 0.8125 0
vt 0.75 0.625
vt 0.75 0
vt 0.6875 0.625
vt 0.6875 0
vt 0.625 0.625
vt 0.625 0
vt 0.5625 0.625
vt 0.5625 0
vt 0.5 0.625
vt 0.5 0
vt 0.4375 0.625
vt 0.4375 0
vt 0.375 0.625
vt 0.375 0
vt 0.3125 0.625
vt 0.3125 0
vt 0.25 0.625
vt 0.25 0
vt 0.1875 0.625
vt 0.1875 0
vt 0.125 0.625
vt 0.125 0
vt 0.0625 0.625
vt 0.0625 0
vt 0 0.625
vt 0 0
vt 0.121209003 0.652459025
vt 0.0549170002 0.679916978
vt 0.0274589993 0.746209025
vt 0 0.8125
vt 0.1875 0.625
vt 0.1875 1
vt 0.0274589993 0.878790975
vt 0.121209003 0.972540975
vt 0.0549170002 0.945083022
vt 0.375 0.8125
vt 0.253791004 0.972540975
vt 0.347541004 0.878790975
vt 0.320082992 0.945083022
vt 0.347541004 0.746209025
vt 0.253791004 0.652459025
vt 0.320082992 0.679916978
vt 0.522096992 0.634153008
vt 0.553346992 0.665403008
vt 0.544193983 0.643306017
vt 0.5625 0.6875
vt 0.5 0.625
vt 0.5 0.75
vt 0.553346992 0.709596992
vt 0.522096992 0.740846992
vt 0.544193983 0.731693983
vt 0.4375 0.6875
vt 0.477903008 0.740846992
vt 0.446653008 0.709596992
vt 0.455805987 0.731693983
vt 0.446653008 0.665403008
vt 0.477903008 0.634153008
vt 0.455805987 0.643306017
vn 1 0 0
vn 0.923879743 0 0.38268292
vn 1 0 0
vn 0.923879743 0 0.38268292
vn 0.707106769 0 0.707106769
vn 0.707106769 0 0.707106769
vn 0.38268292 0 0.923879743
vn 0.38268292 0 0.923879743
vn -0 0 1
vn -0 0 1
vn -0.38268292 0 0.923879743
vn -0.38268292 0 0.923879743
vn -0.707106769 0 0.707106769
vn -0.707106769 0 0.707106769
vn -0.923879743 0 0.38268292
vn -0.923879743 0 0.38268292
vn -1 0 0
vn -1 0 0
vn -0.923879743 0 -0.38268292
vn -0.923879743 0 -0.38268292
vn -0.707106769 0 -0.707106769
vn -0.707106769 0 -0.707106769
vn -0.38268292 0 -0.923879743
vn -0.38268292 0 -0.923879743
vn -0 0 -1
vn -0 0 -1
vn 0.38268292 0 -0.923879743
vn 0.38268292 0 -0.923879743
vn 0.707106769 0 -0.707106769
vn 0.707106769 0 -0.707106769
vn 0.923879743 0 -0.38268292
vn 0.923879743 0 -0.38268292
vn 1 0 0
vn 1 0 0
vn -0 1 0
vn -0 1 0
vn -0 1 0
vn -0 1 0
vn -0 1 0
vn -0 1 0
vn -0 1 0
vn -0 1 0
vn -0 1 0
vn -0 1 0
vn -0 1 0
vn -0 1 0
vn -0 1 0
vn -0 1 0
vn -0 1 0
vn -0 1 0
vn -0 -1 0
vn -0 -1 0
vn -0 -1 0
vn -0 -1 0
vn -0 -1 0
vn -0 -1 0
vn -0 -1 0
vn -0 -1 0
vn -0 -1 0
vn -0 -1 0
vn -0 -1 0
vn -0 -1 0
vn -0 -1 0
vn -0 -1 0
vn -0 -1 0
vn -0 -1 0
g default_0
f 3/3/3 2/2/2 1/1/1
f 2/2/2 4/4/4 1/1/1
f 2/2/2 5/5/5 4/4/4
f 5/5/5 6/6/6 4/4/4
f 5/5/5 7/7/7 6/6/6
f 7/7/7 8/8/8 6/6/6
f 7/7/7 9/9/9 8/8/8
f 9/9/9 10/10/10 8/8/8
f 9/9/9 11/11/11 10/10/10
f 11/11/11 12/12/12 10/10/10
f 11/11/11 13/13/13 12/12/12
f 13/13/13 14/14/14 12/12/12
f 13/13/13 15/15/15 14/14/14
f 15/15/15 16/16/16 14/14/14
f 15/15/15 17/17/17 16/16/16
f 17/17/17 18/18/18 16/16/16
f 17/17/17 19/19/19 18/18/18
f 19/19/19 20/20/20 18/18/18
f 19/19/19 21/21/21 20/20/20
f 21/21/21 22/22/22 20/20/20
f 21/21/21 23/23/23 22/22/22
f 23/23/23 24/24/24 22/22/22
f 23/23/23 25/25/25 24/24/24
f 25/25/25 26/26/26 24/24/24
f 25/25/25 27/27/27 26/26/26
f 27/27/27 28/28/28 26/26/26
f 27/27/27 29/29/29 28/28/28
f 29/29/29 30/30/30 28/28/28
f 29/29/29 31/31/31 30/30/30
f 31/31/31 32/32/32 30/30/30
f 31/31/31 33/33/33 32/32/32
f 33/33/33 34/34/34 32/32/32
f 37/37/37 36/36/36 35/35/35
f 38/38/38 37/37/37 35/35/35
f 38/38/38 35/35/35 39/39/39
f 40/40/40 38/38/38 39/39/39
f 40/40/40 41/41/41 38/38/38
f 40/40/40 42/42/42 41/41/41
f 42/42/42 43/43/43 41/41/41
f 44/44/44 40/40/40 39/39/39
f 44/44/44 45/45/45 40/40/40
f 44/44/44 46/46/46 45/45/45
f 46/46/46 47/47/47 45/45/45
f 39/39/39 48/48/48 44/44/44
f 39/39/39 49/49/49 48/48/48
f 49/49/49 50/50/50 48/48/48
f 53/53/53 52/52/52 51/51/51
f 52/52/52 54/54/54 51/51/51
f 51/51/51 54/54/54 55/55/55
f 54/54/54 56/56/56 55/55/55
f 57/57/57 56/56/56 54/54/54
f 58/58/58 56/56/56 57/57/57
f 59/59/59 58/58/58 57/57/57
f 56/56/56 60/60/60 55/55/55
f 61/61/61 60/60/60 56/56/56
f 62/62/62 60/60/60 61/61/61
f 63/63/63 62/62/62 61/61/61
f 64/64/64 55/55/55 60/60/60
f 65/65/65 55/55/55 64/64/64
f 66/66/66 65/65/65 64/64/64
