g ProductAsteroidBoosterPartsCustomLOD0
v 0.176776886 0 0.176777005
v 0.25 0 0
v -0 0 0.25
v -0.25 0 0
v -0.176776886 0 0.176777005
v -0 0 -0.25
v -0.176776886 0 -0.176777005
v 0.176776886 0 -0.176777005
v 0.204025745 0.90808636 4.64005168E-10
v 0.0846879557 1 0.0846880078
v 0.11976672 1 -3.47872731E-10
v 0.144717321 0.90808636 0.143183812
v 0.200366184 0.412326217 2.34248482E-10
v -0 1 0.11976672
v 0.141657859 0.412326097 0.151033923
v 0.0015336239 0.9080863 0.202492163
v -0.0846879557 1 0.0846880078
v -7.71200866E-05 0.412326217 0.213593811
v -0.141650081 0.90808636 0.143183812
v -0.11976672 1 -7.91474331E-10
v -0.141812101 0.412326097 0.151033923
v -0.20095852 0.9080863 4.64005168E-10
v -0.0846879557 1 -0.0846880078
v -0.200520426 0.412326217 2.34248482E-10
v -0.141650081 0.90808636 -0.143183812
v -0 1 -0.11976672
v -0.141812101 0.412326097 -0.151033923
v 0.0015336239 0.9080863 -0.202492163
v 0.0846879557 1 -0.0846880078
v -7.71200866E-05 0.412326217 -0.213593811
v 0.144717321 0.90808636 -0.143183812
v 0.11976672 1 -3.47872731E-10
v 0.141657859 0.412326097 -0.151033923
v 0.204025745 0.90808636 4.64005168E-10
v 0.200366184 0.412326217 2.34248482E-10
v -0 1 0.11976672
v 0.11976672 1 -3.47872731E-10
v 0.0846879557 1 0.0846880078
v -0.11976672 1 -7.91474331E-10
v -0.0846879557 1 0.0846880078
v -0 1 -0.11976672
v 0.0846879557 1 -0.0846880078
v -0.0846879557 1 -0.0846880078
v 0.200366184 0.412326217 2.34248482E-10
v 0.107904717 0.39737305 -0.114321388
v 0.152600154 0.39737311 -2.16975105E-10
v 0.141657859 0.412326097 -0.151033923
v -3.30323546E-10 0.39737311 -0.161674544
v -7.71200866E-05 0.412326217 -0.213593811
v -0.107904717 0.39737305 -0.114321388
v -0.141812101 0.412326097 -0.151033923
v -0.152600154 0.39737311 -2.16975105E-10
v -0.200520426 0.412326217 2.34248482E-10
v -0.107904717 0.39737305 0.114321388
v -0.141812101 0.412326097 0.151033923
v -3.30323546E-10 0.39737311 0.161674544
v -7.71200866E-05 0.412326217 0.213593811
v 0.107904717 0.39737305 0.114321388
v 0.141657859 0.412326097 0.151033923
v 0.152600154 0.39737311 -2.16975105E-10
v 0.200366184 0.412326217 2.34248482E-10
v 0.152600154 0.39737311 -2.16975105E-10
v 0.176776886 0 -0.176777005
v 0.25 0 0
v 0.107904717 0.39737305 -0.114321388
v -0 0 -0.25
v -3.30323546E-10 0.39737311 -0.161674544
v -0.176776886 0 -0.176777005
v -0.107904717 0.39737305 -0.114321388
v -0.25 0 0
v -0.152600154 0.39737311 -2.16975105E-10
v -0.176776886 0 0.176777005
v -0.107904717 0.39737305 0.114321388
v -0 0 0.25
v -3.30323546E-10 0.39737311 0.161674544
v 0.176776886 0 0.176777005
v 0.107904717 0.39737305 0.114321388
v 0.25 0 0
v 0.152600154 0.39737311 -2.16975105E-10
vt 0.955111802 0.246984661
vt 0.913718283 0.2055915
vt 0.955111802 0.305523634
vt 0.855179608 0.346917093
vt 0.913718641 0.346917093
vt 0.813786149 0.246984899
vt 0.813786149 0.305523932
vt 0.855179369 0.2055915
vt 0.756923079 0.552097261
vt 0.662386417 0.625
vt 0.756923079 0.625
vt 0.662386417 0.552097261
vt 0.756923079 0.259607643
vt 0.569405437 0.625
vt 0.662386417 0.259607643
vt 0.569405437 0.552097261
vt 0.476424336 0.625
vt 0.569405437 0.259607643
vt 0.476424336 0.552097261
vt 0.381887674 0.625
vt 0.476424336 0.259607643
vt 0.381887674 0.552097261
vt 0.287351012 0.625
vt 0.381887674 0.259607643
vt 0.287351012 0.552097261
vt 0.194369912 0.625
vt 0.287351012 0.259607643
vt 0.194369912 0.552097261
vt 0.101388812 0.625
vt 0.194369912 0.259607643
vt 0.101388812 0.552097261
vt 0.00685214996 0.625
vt 0.101388812 0.259607643
vt 0.00685214996 0.552097261
vt 0.00685214996 0.259607643
vt 0.762360692 0.498695999
vt 0.879561841 0.381037891
vt 0.796507537 0.41526553
vt 0.879930854 0.616160989
vt 0.796507776 0.581696808
vt 0.997085929 0.498265833
vt 0.962938845 0.415265322
vt 0.962939084 0.581696391
vt 0.00685214996 0.259607643
vt 0.101388812 0.228878617
vt 0.00685214996 0.228878617
vt 0.101388812 0.259607643
vt 0.194369912 0.228878617
vt 0.194369912 0.259607643
vt 0.287351012 0.228878617
vt 0.287351012 0.259607643
vt 0.381887674 0.228878617
vt 0.381887674 0.259607643
vt 0.476424336 0.228878617
vt 0.476424336 0.259607643
vt 0.569405437 0.228878617
vt 0.569405437 0.259607643
vt 0.662386417 0.228878617
vt 0.662386417 0.259607643
vt 0.756923079 0.228878617
vt 0.756923079 0.259607643
vt 0.00685214996 0.228878617
vt 0.101388812 0
vt 0.00685214996 0
vt 0.101388812 0.228878617
vt 0.194369927 0
vt 0.194369912 0.228878617
vt 0.287351012 0
vt 0.287351012 0.228878617
vt 0.381887674 0
vt 0.381887674 0.228878617
vt 0.476424336 0
vt 0.476424336 0.228878617
vt 0.569405437 0
vt 0.569405437 0.228878617
vt 0.662386417 0
vt 0.662386417 0.228878617
vt 0.756923079 0
vt 0.756923079 0.228878617
vn -0 -1 0
vn -0 -1 0
vn -0 -1 0
vn -0 -1 0
vn -0 -1 0
vn -0 -1 0
vn -0 -1 0
vn -0 -1 0
vn 0.942684174 0.333683968 0.00128018693
vn 0.339252323 0.876650572 0.341162264
vn 0.479790121 0.877383292 0
vn 0.668787479 0.336344182 0.663020313
vn 0.999988079 -0.00440597394 0.00211218093
vn -0.00192914298 0.87487483 0.484345049
vn 0.718610108 0.0097462954 0.695344865
vn 0.00262325397 0.341030687 0.940048456
vn -0.345740557 0.873081505 0.343790829
vn 0.00138350774 0.0192160476 0.999814451
vn -0.667508841 0.336098164 0.664432168
vn -0.488906294 0.872336268 0
vn -0.719438493 0.0082599353 0.694507062
vn -0.944246531 0.329236567 -0.00127628609
vn -0.345739752 0.873081923 -0.343790442
vn -0.999995589 0.0020913647 -0.00210702675
vn -0.668213964 0.333230734 -0.665167093
vn -0.00192962226 0.874875188 -0.484344512
vn -0.719334066 0.014392917 -0.694515169
vn 8.39525965E-05 0.341044724 -0.940047085
vn 0.339252293 0.876650751 -0.341161937
vn -0.00303649856 0.019243747 -0.999810278
vn 0.668073714 0.33920297 -0.662283182
vn 0.479790121 0.877383292 0
vn 0.718696952 0.00361079117 -0.69531405
vn 0.942684174 0.333683968 0.00128018693
vn 0.999988079 -0.00440597394 0.00211218093
vn -0.00192914298 0.87487483 0.484345049
vn 0.479790121 0.877383292 0
vn 0.339252323 0.876650572 0.341162264
vn -0.488906294 0.872336268 0
vn -0.345740557 0.873081505 0.343790829
vn -0.00192962226 0.874875188 -0.484344512
vn 0.339252293 0.876650751 -0.341161937
vn -0.345739752 0.873081923 -0.343790442
vn 0.298557818 -0.954391539 -0.000170313695
vn 0.212637424 -0.957529783 -0.194736078
vn 0.298594773 -0.954380035 -0.000342378014
vn 0.20534347 -0.957822323 -0.201023325
vn 0.000509894046 -0.960893154 -0.27691865
vn 8.18573753E-05 -0.960882604 -0.276956081
vn -0.211776644 -0.957812846 -0.194281042
vn -0.205307588 -0.957877219 -0.200798243
vn -0.297718972 -0.954653502 0.000341266743
vn -0.297682315 -0.954665005 0.000169676539
vn -0.212021813 -0.957716823 0.194487363
vn -0.205010593 -0.957995296 0.200538784
vn -0.000189520375 -0.96089375 0.276917577
vn -0.000231228347 -0.960882723 0.276955366
vn 0.212390393 -0.957626283 0.19453083
vn 0.205641314 -0.957703769 0.20128344
vn 0.298594773 -0.954380035 -0.000342378014
vn 0.298557818 -0.954391539 -0.000170313695
vn 0.97208631 0.23460485 -0.00295928493
vn 0.691016018 0.230115071 -0.685232818
vn 0.971852839 0.235582605 -0.00167859613
vn 0.699747145 0.224026501 -0.678355396
vn 0.00166785682 0.219513148 -0.975608051
vn 0.00311191496 0.220665738 -0.975344598
vn -0.691877663 0.225100636 -0.686028421
vn -0.698642373 0.231169 -0.677096546
vn -0.971852839 0.235582605 0.00167859613
vn -0.97208631 0.23460485 0.00295928493
vn -0.691016018 0.230115071 0.685232818
vn -0.699747145 0.224026501 0.678355396
vn -0.00166785682 0.219513148 0.975608051
vn -0.00311191496 0.220665738 0.975344598
vn 0.691877663 0.225100636 0.686028421
vn 0.698642373 0.231169 0.677096546
vn 0.971852839 0.235582605 -0.00167859613
vn 0.97208631 0.23460485 -0.00295928493
g ProductAsteroidBoosterPartsCustomLOD0_0
f 3/3/3 2/2/2 1/1/1
f 4/4/4 2/2/2 3/3/3
f 4/4/4 3/3/3 5/5/5
f 6/6/6 2/2/2 4/4/4
f 6/6/6 4/4/4 7/7/7
f 2/2/2 6/6/6 8/8/8
f 11/11/11 10/10/10 9/9/9
f 9/9/9 10/10/10 12/12/12
f 9/9/9 12/12/12 13/13/13
f 10/10/10 14/14/14 12/12/12
f 13/13/13 12/12/12 15/15/15
f 12/12/12 14/14/14 16/16/16
f 16/16/16 15/15/15 12/12/12
f 14/14/14 17/17/17 16/16/16
f 18/18/18 15/15/15 16/16/16
f 16/16/16 17/17/17 19/19/19
f 16/16/16 19/19/19 18/18/18
f 20/20/20 19/19/19 17/17/17
f 18/18/18 19/19/19 21/21/21
f 22/22/22 19/19/19 20/20/20
f 22/22/22 21/21/21 19/19/19
f 23/23/23 22/22/22 20/20/20
f 24/24/24 21/21/21 22/22/22
f 25/25/25 22/22/22 23/23/23
f 22/22/22 25/25/25 24/24/24
f 23/23/23 26/26/26 25/25/25
f 24/24/24 25/25/25 27/27/27
f 25/25/25 26/26/26 28/28/28
f 25/25/25 28/28/28 27/27/27
f 26/26/26 29/29/29 28/28/28
f 27/27/27 28/28/28 30/30/30
f 28/28/28 29/29/29 31/31/31
f 31/31/31 30/30/30 28/28/28
f 29/29/29 32/32/32 31/31/31
f 33/33/33 30/30/30 31/31/31
f 31/31/31 32/32/32 34/34/34
f 34/34/34 33/33/33 31/31/31
f 35/35/35 33/33/33 34/34/34
f 38/38/38 37/37/37 36/36/36
f 37/37/37 39/39/39 36/36/36
f 40/40/40 36/36/36 39/39/39
f 41/41/41 39/39/39 37/37/37
f 42/42/42 41/41/41 37/37/37
f 43/43/43 39/39/39 41/41/41
f 46/46/46 45/45/45 44/44/44
f 44/44/44 45/45/45 47/47/47
f 45/45/45 48/48/48 47/47/47
f 47/47/47 48/48/48 49/49/49
f 48/48/48 50/50/50 49/49/49
f 49/49/49 50/50/50 51/51/51
f 50/50/50 52/52/52 51/51/51
f 51/51/51 52/52/52 53/53/53
f 52/52/52 54/54/54 53/53/53
f 53/53/53 54/54/54 55/55/55
f 54/54/54 56/56/56 55/55/55
f 55/55/55 56/56/56 57/57/57
f 56/56/56 58/58/58 57/57/57
f 57/57/57 58/58/58 59/59/59
f 58/58/58 60/60/60 59/59/59
f 59/59/59 60/60/60 61/61/61
f 64/64/64 63/63/63 62/62/62
f 62/62/62 63/63/63 65/65/65
f 63/63/63 66/66/66 65/65/65
f 65/65/65 66/66/66 67/67/67
f 66/66/66 68/68/68 67/67/67
f 67/67/67 68/68/68 69/69/69
f 68/68/68 70/70/70 69/69/69
f 69/69/69 70/70/70 71/71/71
f 70/70/70 72/72/72 71/71/71
f 71/71/71 72/72/72 73/73/73
f 72/72/72 74/74/74 73/73/73
f 73/73/73 74/74/74 75/75/75
f 74/74/74 76/76/76 75/75/75
f 75/75/75 76/76/76 77/77/77
f 76/76/76 78/78/78 77/77/77
f 77/77/77 78/78/78 79/79/79
