g ProductAsteroidBoosterPartsCustomLOD1
v 0.173400953 0.90808636 3.94005994E-10
v 0.176776886 0 -0.176777005
v 0.25 0 0
v 0.123039708 0.90808636 0.121583305
v 0.176776886 0 0.176777005
v 0.123039708 0.90808636 -0.121583305
v -0 0 -0.25
v 0.00145650352 0.9080863 0.171944469
v -0 0 0.25
v 0.00145650352 0.9080863 -0.171944469
v -0.176776886 0 -0.176777005
v -0.120126702 0.90808636 0.121583305
v -0.176776886 0 0.176777005
v -0.120126702 0.90808636 -0.121583305
v -0.25 0 0
v -0.170487955 0.9080863 3.94005994E-10
v 0.11976672 1 -3.47872731E-10
v 0.0846879557 1 0.0846880078
v -0 1 0.11976672
v 0.0846879557 1 -0.0846880078
v -0 1 -0.11976672
v -0.0846879557 1 0.0846880078
v -0.11976672 1 -7.91474331E-10
v -0.0846879557 1 -0.0846880078
vt 0.253077865 0.816879213
vt 0.36997968 0.889915407
vt 0.37060973 0.738182008
vt 0.236312151 0.770263135
vt 0.26358667 0.630064785
vt 0.231059954 0.861553907
vt 0.262526542 0.996758461
vt 0.191013351 0.751860976
vt 0.111431606 0.630285501
vt 0.183486059 0.877303898
vt 0.111117616 0.996511281
vt 0.145567879 0.768214881
vt 0.0041447226 0.737773418
vt 0.13886264 0.855426252
vt 0.0041447226 0.889353454
vt 0.124070071 0.81061852
vt 0.217661276 0.816987932
vt 0.212032557 0.794445753
vt 0.191064641 0.784027696
vt 0.206113219 0.837554336
vt 0.182079926 0.843274057
vt 0.168113604 0.790491164
vt 0.155860305 0.810288668
vt 0.158096403 0.830968022
vn 0.957922757 0.287026256 0
vn 0.704383552 0.0845188573 -0.704769731
vn 0.996461213 0.0840536654 0
vn 0.678310096 0.285780638 0.676923037
vn 0.70439291 0.0845188498 0.704760373
vn 0.678315699 0.285780549 -0.676917553
vn -0.000383022532 0.0856408998 -0.996326029
vn 0.00140235445 0.282732546 0.9591977
vn -0.000369652116 0.0856408551 0.996326029
vn 0.00140976021 0.282732487 -0.9591977
vn -0.704632938 0.0867622569 -0.704247594
vn -0.678191602 0.279627919 0.67960608
vn -0.704623401 0.0867622271 0.704257131
vn -0.678186357 0.2796278 -0.679611266
vn -0.996188581 0.0872262865 0
vn -0.960487187 0.278324336 0
vn 0.580041826 0.814586759 0
vn 0.410060406 0.813483 0.412426978
vn -0.00238631363 0.810814798 0.585297883
vn 0.41005531 0.813483477 -0.412430912
vn -0.00239332509 0.810815513 -0.58529681
vn -0.417690486 0.808128476 0.415286601
vn -0.59053117 0.807014883 0
vn -0.417694896 0.808128953 -0.415281355
g ProductAsteroidBoosterPartsCustomLOD1_0
f 3/3/3 2/2/2 1/1/1
f 1/1/1 4/4/4 3/3/3
f 4/4/4 5/5/5 3/3/3
f 1/1/1 2/2/2 6/6/6
f 2/2/2 7/7/7 6/6/6
f 8/8/8 5/5/5 4/4/4
f 9/9/9 5/5/5 8/8/8
f 6/6/6 7/7/7 10/10/10
f 10/10/10 7/7/7 11/11/11
f 8/8/8 12/12/12 9/9/9
f 12/12/12 13/13/13 9/9/9
f 14/14/14 10/10/10 11/11/11
f 14/14/14 11/11/11 15/15/15
f 15/15/15 13/13/13 16/16/16
f 16/16/16 13/13/13 12/12/12
f 16/16/16 14/14/14 15/15/15
f 6/6/6 17/17/17 1/1/1
f 18/18/18 4/4/4 1/1/1
f 17/17/17 18/18/18 1/1/1
f 18/18/18 19/19/19 4/4/4
f 4/4/4 19/19/19 8/8/8
f 18/18/18 17/17/17 19/19/19
f 10/10/10 20/20/20 6/6/6
f 20/20/20 17/17/17 6/6/6
f 21/21/21 20/20/20 10/10/10
f 14/14/14 21/21/21 10/10/10
f 20/20/20 21/21/21 17/17/17
f 8/8/8 22/22/22 12/12/12
f 19/19/19 22/22/22 8/8/8
f 23/23/23 19/19/19 17/17/17
f 22/22/22 19/19/19 23/23/23
f 22/22/22 23/23/23 12/12/12
f 23/23/23 16/16/16 12/12/12
f 21/21/21 23/23/23 17/17/17
f 24/24/24 14/14/14 16/16/16
f 23/23/23 24/24/24 16/16/16
f 24/24/24 21/21/21 14/14/14
f 24/24/24 23/23/23 21/21/21
