g default
v -0.5 0 -0.5
v 0.5 0 0.5
v 0.5 0 -0.5
v -0.5 0 0.5
v 0.5 0 0.5
v -0.5 0 0.5
v -0.5 0.330000013 0.5
v 0.5 0.330000013 0.5
v 0.5 0 -0.5
v -0.5 0.330000013 -0.5
v -0.5 0 -0.5
v 0.5 0.330000013 -0.5
vt 0 1
vt 0.25 0.75
vt 0 0.75
vt 0.25 1
vt 0 0
vt 0 0.75
vt 0.150000006 0.600000024
vt 0.150000006 0.150000006
vt 0.75 0
vt 0.600000024 0.600000024
vt 0.75 0.75
vt 0.600000024 0.150000006
vn -0 -1 0
vn -0 -1 0
vn -0 -1 0
vn -0 -1 0
vn 0.707106769 0 0.707106769
vn -0.707106769 0 0.707106769
vn -0.577350259 0.577350259 0.577350259
vn 0.577350259 0.577350259 0.577350259
vn 0.707106769 0 -0.707106769
vn -0.577350259 0.577350259 -0.577350259
vn -0.707106769 0 -0.707106769
vn 0.577350259 0.577350259 -0.577350259
g default_0
f 3/3/3 2/2/2 1/1/1
f 2/2/2 4/4/4 1/1/1
f 7/7/7 6/6/6 5/5/5
f 8/8/8 7/7/7 5/5/5
f 8/8/8 5/5/5 9/9/9
f 7/7/7 10/10/10 6/6/6
f 7/7/7 8/8/8 10/10/10
f 10/10/10 11/11/11 6/6/6
f 12/12/12 9/9/9 11/11/11
f 12/12/12 8/8/8 9/9/9
f 8/8/8 12/12/12 10/10/10
f 10/10/10 12/12/12 11/11/11
