g default
v 0.424264014 0 0.424264014
v -0.424264014 0 0.424264014
v -0.424264014 1 0.424264014
v 0.424264014 1 0.424264014
v 0.424264014 0 -0.424264014
v -0.424264014 1 -0.424264014
v -0.424264014 0 -0.424264014
v 0.424264014 1 -0.424264014
vt 0.75 0.75
vt 0.75 1
vt 0.833333015 0.916666985
vt 0.833333015 0.833333015
vt 1 0.75
vt 0.916666985 0.916666985
vt 1 1
vt 0.916666985 0.833333015
vn 0.707106769 0 0.707106769
vn -0.707106769 0 0.707106769
vn -0.577350259 0.577350259 0.577350259
vn 0.577350259 0.577350259 0.577350259
vn 0.707106769 0 -0.707106769
vn -0.577350259 0.577350259 -0.577350259
vn -0.707106769 0 -0.707106769
vn 0.577350259 0.577350259 -0.577350259
g default_0
f 3/3/3 2/2/2 1/1/1
f 4/4/4 3/3/3 1/1/1
f 4/4/4 1/1/1 5/5/5
f 3/3/3 6/6/6 2/2/2
f 3/3/3 4/4/4 6/6/6
f 6/6/6 7/7/7 2/2/2
f 8/8/8 5/5/5 7/7/7
f 8/8/8 4/4/4 5/5/5
f 4/4/4 8/8/8 6/6/6
f 6/6/6 8/8/8 7/7/7
