g default
v 0.191341996 0 0.461939991
v -0.191341996 0 0.461939991
v -0 0 0.5
v -0.353552997 0 0.353552997
v 0.353552997 0 0.353552997
v -0.353552997 0 -0.353552997
v -0.461939991 0 0.191341996
v -0.461939991 0 -0.191341996
v -0.5 0 0
v 0.353552997 0 -0.353552997
v -0.191341996 0 -0.461939991
v 0.191341996 0 -0.461939991
v -0 0 -0.5
v 0.461939991 0 -0.191341996
v 0.461939991 0 0.191341996
v 0.5 0 0
v 0.5 0 0
v 0.461939991 0 0.191341996
v 0.461939991 0.330000013 0.191341996
v 0.353552997 0.330000013 0.353552997
v 0.353552997 0 0.353552997
v 0.5 0.330000013 0
v 0.461939991 0 -0.191341996
v 0.461939991 0.330000013 -0.191341996
v 0.353552997 0 -0.353552997
v 0.353552997 0.330000013 -0.353552997
v -0.353552997 0.330000013 -0.353552997
v 0.191341996 0 -0.461939991
v 0.191341996 0.330000013 0.461939991
v 0.191341996 0 0.461939991
v 0.191341996 0.330000013 -0.461939991
v -0 0 -0.5
v -0.191341996 0.330000013 -0.461939991
v -0 0.330000013 -0.5
v -0.191341996 0 -0.461939991
v -0.353552997 0 -0.353552997
v -0.461939991 0 -0.191341996
v -0.353552997 0.330000013 0.353552997
v -0 0.330000013 0.5
v -0 0 0.5
v -0.191341996 0.330000013 0.461939991
v -0.191341996 0 0.461939991
v -0.353552997 0 0.353552997
v -0.461939991 0.330000013 0.191341996
v -0.461939991 0 0.191341996
v -0.461939991 0.330000013 -0.191341996
v -0.5 0 0
v -0.5 0.330000013 0
vt 0.986271024 0.0606039986
vt 0.986271024 0.126894996
vt 1 0.09375
vt 0.972540975 0.160041004
vt 0.972540975 0.0274589993
vt 0.839959025 0.160041004
vt 0.939396024 0.173769996
vt 0.873103976 0.173769996
vt 0.90625 0.1875
vt 0.839959025 0.0274589993
vt 0.826228976 0.126894996
vt 0.826228976 0.0606039986
vt 0.8125 0.09375
vt 0.873103976 0.0137299998
vt 0.939396024 0.0137299998
vt 0.90625 0
vt 0.4375 0
vt 0.282821 0.0640709996
vt 0.327013999 0.170763999
vt 0.216528997 0.216528997
vt 0.128141001 0.128141001
vt 0.4375 0.125
vt 0.592180014 0.0640709996
vt 0.547985971 0.170763999
vt 0.746859014 0.128141001
vt 0.658470988 0.216528997
vt 0.658470988 0.658470988
vt 0.810930014 0.282821
vt 0.170763999 0.327013999
vt 0.0640709996 0.282821
vt 0.704235971 0.327013999
vt 0.875 0.4375
vt 0.704235971 0.547985971
vt 0.75 0.4375
vt 0.810930014 0.592180014
vt 0.746859014 0.746859014
vt 0.592180014 0.810930014
vt 0.216528997 0.658470988
vt 0.125 0.4375
vt 0 0.4375
vt 0.170763999 0.547985971
vt 0.0640709996 0.592180014
vt 0.128141001 0.746859014
vt 0.327013999 0.704235971
vt 0.282821 0.810930014
vt 0.547985971 0.704235971
vt 0.4375 0.875
vt 0.4375 0.75
vn -0 -1 0
vn -0 -1 0
vn -0 -1 0
vn -0 -1 0
vn -0 -1 0
vn -0 -1 0
vn -0 -1 0
vn -0 -1 0
vn -0 -1 0
vn -0 -1 0
vn -0 -1 0
vn -0 -1 0
vn -0 -1 0
vn -0 -1 0
vn -0 -1 0
vn -0 -1 0
vn 1 0 0
vn 0.923879743 0 0.38268292
vn 0.653281093 0.707107127 0.270598024
vn 0.499999911 0.707106888 0.499999911
vn 0.707106769 0 0.707106769
vn 0.707106769 0.707106769 0
vn 0.923879743 0 -0.38268292
vn 0.653281093 0.707107127 -0.270598024
vn 0.707106769 0 -0.707106769
vn 0.499999911 0.707106888 -0.499999911
vn -0.499999911 0.707106888 -0.499999911
vn 0.38268292 0 -0.923879743
vn 0.270598024 0.707107127 0.653281093
vn 0.38268292 0 0.923879743
vn 0.270598024 0.707107127 -0.653281093
vn -0 0 -1
vn -0.270598024 0.707107127 -0.653281093
vn -0 0.707106769 -0.707106769
vn -0.38268292 0 -0.923879743
vn -0.707106769 0 -0.707106769
vn -0.923879743 0 -0.38268292
vn -0.499999911 0.707106888 0.499999911
vn -0 0.707106769 0.707106769
vn -0 0 1
vn -0.270598024 0.707107127 0.653281093
vn -0.38268292 0 0.923879743
vn -0.707106769 0 0.707106769
vn -0.653281093 0.707107127 0.270598024
vn -0.923879743 0 0.38268292
vn -0.653281093 0.707107127 -0.270598024
vn -1 0 0
vn -0.707106769 0.707106769 0
g default_0
f 3/3/3 2/2/2 1/1/1
f 2/2/2 4/4/4 1/1/1
f 1/1/1 4/4/4 5/5/5
f 4/4/4 6/6/6 5/5/5
f 7/7/7 6/6/6 4/4/4
f 8/8/8 6/6/6 7/7/7
f 9/9/9 8/8/8 7/7/7
f 6/6/6 10/10/10 5/5/5
f 11/11/11 10/10/10 6/6/6
f 12/12/12 10/10/10 11/11/11
f 13/13/13 12/12/12 11/11/11
f 14/14/14 5/5/5 10/10/10
f 15/15/15 5/5/5 14/14/14
f 16/16/16 15/15/15 14/14/14
f 19/19/19 18/18/18 17/17/17
f 19/19/19 20/20/20 18/18/18
f 20/20/20 21/21/21 18/18/18
f 22/22/22 19/19/19 17/17/17
f 22/22/22 17/17/17 23/23/23
f 19/19/19 22/22/22 24/24/24
f 24/24/24 22/22/22 23/23/23
f 20/20/20 19/19/19 24/24/24
f 24/24/24 23/23/23 25/25/25
f 26/26/26 24/24/24 25/25/25
f 20/20/20 24/24/24 26/26/26
f 26/26/26 27/27/27 20/20/20
f 26/26/26 25/25/25 28/28/28
f 20/20/20 29/29/29 21/21/21
f 29/29/29 30/30/30 21/21/21
f 31/31/31 26/26/26 28/28/28
f 31/31/31 28/28/28 32/32/32
f 26/26/26 31/31/31 33/33/33
f 26/26/26 33/33/33 27/27/27
f 34/34/34 31/31/31 32/32/32
f 31/31/31 34/34/34 33/33/33
f 34/34/34 32/32/32 35/35/35
f 33/33/33 34/34/34 35/35/35
f 33/33/33 35/35/35 36/36/36
f 27/27/27 33/33/33 36/36/36
f 27/27/27 36/36/36 37/37/37
f 27/27/27 38/38/38 20/20/20
f 38/38/38 29/29/29 20/20/20
f 29/29/29 39/39/39 30/30/30
f 39/39/39 40/40/40 30/30/30
f 41/41/41 39/39/39 29/29/29
f 39/39/39 41/41/41 40/40/40
f 38/38/38 41/41/41 29/29/29
f 41/41/41 42/42/42 40/40/40
f 41/41/41 38/38/38 42/42/42
f 38/38/38 43/43/43 42/42/42
f 38/38/38 44/44/44 43/43/43
f 27/27/27 44/44/44 38/38/38
f 44/44/44 45/45/45 43/43/43
f 46/46/46 27/27/27 37/37/37
f 27/27/27 46/46/46 44/44/44
f 46/46/46 37/37/37 47/47/47
f 44/44/44 48/48/48 45/45/45
f 48/48/48 47/47/47 45/45/45
f 48/48/48 46/46/46 47/47/47
f 46/46/46 48/48/48 44/44/44
