g default
v 0.37123099 0 -0.37123099
v 0.524999976 0 0
v 0.524999976 0.330000013 0
v 0.37123099 0.330000013 -0.37123099
v -0 0 -0.524999976
v 0.37123099 0.330000013 0.37123099
v 0.37123099 0 0.37123099
v -0 0.330000013 -0.524999976
v -0.37123099 0 -0.37123099
v -0.37123099 0.330000013 -0.37123099
v -0.524999976 0 0
v -0 0.330000013 0.524999976
v -0 0 0.524999976
v -0.37123099 0.330000013 0.37123099
v -0.37123099 0 0.37123099
v -0.524999976 0.330000013 0
vt 0.746859014 0.128141001
vt 0.4375 0
vt 0.4375 0.125
vt 0.658470988 0.216528997
vt 0.875 0.4375
vt 0.216528997 0.216528997
vt 0.128141001 0.128141001
vt 0.75 0.4375
vt 0.746859014 0.746859014
vt 0.658470988 0.658470988
vt 0.4375 0.875
vt 0.125 0.4375
vt 0 0.4375
vt 0.216528997 0.658470988
vt 0.128141001 0.746859014
vt 0.4375 0.75
vn 0.707106769 0 -0.707106769
vn 1 0 0
vn 0.707106769 0.707106769 0
vn 0.499999911 0.707106888 -0.499999911
vn -0 0 -1
vn 0.499999911 0.707106888 0.499999911
vn 0.707106769 0 0.707106769
vn -0 0.707106769 -0.707106769
vn -0.707106769 0 -0.707106769
vn -0.499999911 0.707106888 -0.499999911
vn -1 0 0
vn -0 0.707106769 0.707106769
vn -0 0 1
vn -0.499999911 0.707106888 0.499999911
vn -0.707106769 0 0.707106769
vn -0.707106769 0.707106769 0
g default_0
f 3/3/3 2/2/2 1/1/1
f 4/4/4 3/3/3 1/1/1
f 4/4/4 1/1/1 5/5/5
f 3/3/3 6/6/6 2/2/2
f 6/6/6 3/3/3 4/4/4
f 6/6/6 7/7/7 2/2/2
f 8/8/8 4/4/4 5/5/5
f 8/8/8 5/5/5 9/9/9
f 4/4/4 8/8/8 10/10/10
f 10/10/10 8/8/8 9/9/9
f 4/4/4 10/10/10 6/6/6
f 10/10/10 9/9/9 11/11/11
f 6/6/6 12/12/12 7/7/7
f 12/12/12 13/13/13 7/7/7
f 14/14/14 12/12/12 6/6/6
f 12/12/12 14/14/14 13/13/13
f 10/10/10 14/14/14 6/6/6
f 14/14/14 15/15/15 13/13/13
f 16/16/16 11/11/11 15/15/15
f 16/16/16 10/10/10 11/11/11
f 14/14/14 16/16/16 15/15/15
f 10/10/10 16/16/16 14/14/14
