g default
v -0.424264014 0 -0.424264014
v 0.424264014 0 -0.424264014
v 0.424264014 0.330000013 -0.424264014
v -0.424264014 0.330000013 -0.424264014
v -0.424264014 0 0.424264014
v 0.424264014 0.330000013 0.424264014
v 0.424264014 0 0.424264014
v -0.424264014 0.330000013 0.424264014
vt 0.1875 1
vt 0.1875 0.8125
vt 0.140625 0.859375
vt 0.140625 0.953125
vt 0 1
vt 0.046875 0.859375
vt 0 0.8125
vt 0.046875 0.953125
vn -0.707106769 0 -0.707106769
vn 0.707106769 0 -0.707106769
vn 0.499999911 0.707106888 -0.499999911
vn -0.499999911 0.707106888 -0.499999911
vn -0.707106769 0 0.707106769
vn 0.499999911 0.707106888 0.499999911
vn 0.707106769 0 0.707106769
vn -0.499999911 0.707106888 0.499999911
g default_0
f 3/3/3 2/2/2 1/1/1
f 4/4/4 3/3/3 1/1/1
f 4/4/4 1/1/1 5/5/5
f 3/3/3 6/6/6 2/2/2
f 3/3/3 4/4/4 6/6/6
f 6/6/6 7/7/7 2/2/2
f 8/8/8 5/5/5 7/7/7
f 8/8/8 4/4/4 5/5/5
f 6/6/6 8/8/8 7/7/7
f 4/4/4 8/8/8 6/6/6
