# Blender 5.1.2
# www.blender.org
mtllib Candu_Rod.mtl
o UraniumRod
v 0.099779 0.000000 -0.172823
v 0.099779 0.750000 -0.172823
v 0.199559 0.000000 0.000000
v 0.199559 0.750000 -0.000000
v -0.099779 0.000000 -0.172823
v -0.099779 0.750000 -0.172823
v 0.099779 0.000000 -0.172823
v 0.099779 0.750000 -0.172823
v -0.199559 -0.000000 0.000000
v -0.199559 0.750000 0.000000
v -0.099779 0.000000 -0.172823
v -0.099779 0.750000 -0.172823
v -0.099779 -0.000000 0.172823
v -0.099779 0.750000 0.172823
v -0.199559 -0.000000 0.000000
v -0.199559 0.750000 0.000000
v 0.099779 -0.000000 0.172823
v 0.099779 0.750000 0.172823
v -0.099779 -0.000000 0.172823
v -0.099779 0.750000 0.172823
v 0.199559 0.000000 0.000000
v 0.199559 0.750000 -0.000000
v 0.099779 -0.000000 0.172823
v 0.099779 0.750000 0.172823
v 0.099779 0.750000 -0.172823
v -0.099779 0.750000 -0.172823
v 0.199559 0.750000 -0.000000
v -0.099779 0.750000 0.172823
v 0.099779 0.750000 0.172823
v -0.199559 0.750000 0.000000
vn 0.8660 -0.0000 -0.5000
vn -0.0000 -0.0000 -1.0000
vn -0.8660 -0.0000 -0.5000
vn -0.8660 -0.0000 0.5000
vn -0.0000 -0.0000 1.0000
vn 0.8660 -0.0000 0.5000
vn -0.0000 1.0000 -0.0000
vt 0.987685 0.009303
vt 0.987685 0.621112
vt 0.824897 0.009303
vt 0.824897 0.621112
vt 0.173743 0.009303
vt 0.173743 0.621112
vt 0.010954 0.009303
vt 0.010954 0.621112
vt 0.336532 0.009303
vt 0.336532 0.621112
vt 0.499321 0.009303
vt 0.499321 0.621112
vt 0.662109 0.009303
vt 0.662109 0.621112
vt 0.418268 0.780133
vt 0.336545 0.920922
vt 0.337201 0.638964
vt 0.092690 0.779375
vt 0.174413 0.638585
vt 0.173756 0.920543
s 0
usemtl UraniumRod
f 1/1/1 2/2/1 3/3/1
f 4/4/1 3/3/1 2/2/1
f 5/5/2 6/6/2 7/7/2
f 8/8/2 7/7/2 6/6/2
f 9/9/3 10/10/3 11/5/3
f 12/6/3 11/5/3 10/10/3
f 13/11/4 14/12/4 15/9/4
f 16/10/4 15/9/4 14/12/4
f 17/13/5 18/14/5 19/11/5
f 20/12/5 19/11/5 18/14/5
f 21/3/6 22/4/6 23/13/6
f 24/14/6 23/13/6 22/4/6
f 25/15/7 26/16/7 27/17/7
f 26/16/7 28/18/7 27/17/7
f 27/17/7 28/18/7 29/19/7
f 30/20/7 28/18/7 26/16/7
